<svg xmlns="http://www.w3.org/2000/svg" xmlns:xlink="http://www.w3.org/1999/xlink" preserveAspectRatio="xMidYMid meet" version="1.0" viewBox="-0.0 -0.0 44.9 53.9" zoomAndPan="magnify" style="fill: rgb(255, 255, 255);" original_string_length="1363"><g data-name="43" id="__id599_ss9ox0b69"><path d="M21.247,0h2.31a.9.9,0,0,0,.229.086,14.756,14.756,0,0,1,7.293,2.545,15.379,15.379,0,0,1,6.995,13.094,2.056,2.056,0,0,1-2.146,2.218c-.8.03-1.611.027-2.415,0A1.976,1.976,0,0,1,31.6,16.715a4,4,0,0,1-.237-1.331A9.02,9.02,0,0,0,19.275,7.276a9.4,9.4,0,0,0-5.792,8.26c-.053,2.187-.021,4.377-.024,6.566a2.091,2.091,0,0,0,.057.331h.749q12.839,0,25.678,0a6.371,6.371,0,0,1,1.3.1A4.469,4.469,0,0,1,44.8,27q.011,7.775,0,15.55a11.746,11.746,0,0,1-.048,1.259A11.067,11.067,0,0,1,33.616,53.8c-7.474,0-14.949.012-22.423-.014a11.9,11.9,0,0,1-2.75-.33A10.866,10.866,0,0,1,.055,43.325C-.033,37.811.006,32.294.029,26.778A4.308,4.308,0,0,1,3.389,22.6a17.107,17.107,0,0,1,2.66-.171c.217-.012.435-.027.686-.043v-.63c0-2-.007-3.993,0-5.989A15.8,15.8,0,0,1,18.741.493C19.566.29,20.411.162,21.247,0Zm1.162,31.4a4.545,4.545,0,0,0-4.287,3.184,4.457,4.457,0,0,0,1.752,4.944.781.781,0,0,1,.291.534c.031.8,0,1.608.016,2.413a2.4,2.4,0,0,0,2.208,2.368,2.394,2.394,0,0,0,2.248-2.375c.012-.8-.012-1.61.015-2.413a.725.725,0,0,1,.256-.5,4.427,4.427,0,0,0,1.776-5.019A4.558,4.558,0,0,0,22.409,31.4Z" style="fill: inherit;"/></g></svg>